PathFileType	4	(X/Y/Z)	output.trc
DataRate	CameraRate	NumFrames	NumMarkers	Units	OrigDataRate	OrigDataStartFrame	OrigNumFrames
100	100	9	23	m	100	5259	6010
Frame#	Time	C7			T8			EL			EM			US			RS			AA			Fore_Clus_1			Fore_Clus_2			Fore_Clus_3			Fore_Clus_4			Hum_Clus_1			Hum_Clus_2			Hum_Clus_3			Hum_Clus_4			Thor_Clus_1			Thor_Clus_2			Thor_Clus_3			Thor_Clus_4			IJ			PX			GH			Thor_Clus_5		
		X1	Y1	Z1	X2	Y2	Z2	X3	Y3	Z3	X4	Y4	Z4	X5	Y5	Z5	X6	Y6	Z6	X7	Y7	Z7	X8	Y8	Z8	X9	Y9	Z9	X10	Y10	Z10	X11	Y11	Z11	X12	Y12	Z12	X13	Y13	Z13	X14	Y14	Z14	X15	Y15	Z15	X16	Y16	Z16	X17	Y17	Z17	X18	Y18	Z18	X19	Y19	Z19	X20	Y20	Z20	X21	Y21	Z21	X22	Y22	Z22	X23	Y23	Z23
5258	52.580000	-0.016579	1.491695	-0.120978	-0.010057	1.242854	-0.184900	-0.217335	1.085850	0.029308	-0.169848	1.068638	-0.015648	-0.198449	0.857903	0.120370	-0.146958	0.868235	0.131333	-0.176018	1.398622	-0.021822	-0.213531	0.914985	0.138931	-0.205554	0.865209	0.158149	-0.179400	0.872304	0.165690	-0.171845	0.927480	0.151045	-0.215367	1.191764	0.071519	-0.243963	1.195978	0.018733	-0.251525	1.258962	0.015650	-0.217364	1.265513	0.063040	0.091438	1.381822	0.044437	0.046362	1.325405	0.088301	0.049440	1.374157	0.057110	0.107363	1.336105	0.069366	0.027376	1.405339	-0.010809	0.073616	1.210208	0.038601	-0.145194	1.373662	-0.009136	0.039272	1.345608	0.076963
5259	52.590000	-0.016496	1.491644	-0.121061	-0.009811	1.242785	-0.184898	-0.217434	1.085929	0.029334	-0.169930	1.068697	-0.015596	-0.200305	0.857761	0.119771	-0.148783	0.867727	0.130924	-0.175980	1.398534	-0.022013	-0.215098	0.914914	0.138468	-0.207403	0.864956	0.157500	-0.181210	0.871890	0.165117	-0.173334	0.927045	0.150700	-0.215478	1.191916	0.071554	-0.244072	1.196101	0.018741	-0.251580	1.259107	0.015640	-0.217415	1.265650	0.063022	0.091419	1.381890	0.044493	0.046390	1.325351	0.088251	0.049423	1.374189	0.057103	0.107349	1.336179	0.069447	0.027402	1.405342	-0.010827	0.073683	1.210247	0.038686	-0.145202	1.373716	-0.009125	0.039215	1.345607	0.077005
5260	52.600000	-0.016391	1.491617	-0.121126	-0.009551	1.242749	-0.184912	-0.217609	1.086030	0.029304	-0.170064	1.068770	-0.015572	-0.202038	0.857718	0.119290	-0.150489	0.867366	0.130598	-0.175927	1.398462	-0.022205	-0.216530	0.914874	0.138025	-0.209209	0.864836	0.156870	-0.183074	0.871596	0.164674	-0.174699	0.926699	0.150363	-0.215670	1.192084	0.071542	-0.244226	1.196241	0.018699	-0.251660	1.259261	0.015529	-0.217543	1.265796	0.062939	0.091404	1.381935	0.044540	0.046352	1.325384	0.088271	0.049415	1.374229	0.057113	0.107295	1.336226	0.069543	0.027441	1.405352	-0.010837	0.073754	1.210284	0.038752	-0.145203	1.373778	-0.009116	0.039170	1.345643	0.077006
5261	52.610000	-0.016269	1.491616	-0.121171	-0.009290	1.242747	-0.184939	-0.217855	1.086153	0.029226	-0.170243	1.068855	-0.015565	-0.203641	0.857760	0.118915	-0.152071	0.867143	0.130350	-0.175864	1.398414	-0.022389	-0.217960	0.914863	0.137653	-0.210944	0.864746	0.156563	-0.184697	0.871391	0.164312	-0.176197	0.926521	0.150181	-0.215944	1.192281	0.071452	-0.244423	1.196411	0.018572	-0.251764	1.259435	0.015337	-0.217741	1.265995	0.062822	0.091420	1.381979	0.044590	0.046329	1.325421	0.088276	0.049397	1.374267	0.057142	0.107294	1.336268	0.069603	0.027492	1.405370	-0.010838	0.073824	1.210320	0.038803	-0.145199	1.373848	-0.009122	0.039168	1.345656	0.077003
5262	52.620000	-0.016123	1.491638	-0.121202	-0.009023	1.242774	-0.184977	-0.218165	1.086299	0.029106	-0.170462	1.068949	-0.015567	-0.205114	0.857876	0.118642	-0.153530	0.867043	0.130187	-0.175788	1.398391	-0.022575	-0.219344	0.914936	0.137350	-0.212558	0.864756	0.156229	-0.186262	0.871271	0.164038	-0.177473	0.926464	0.150043	-0.216318	1.192481	0.071316	-0.244643	1.196592	0.018388	-0.251908	1.259603	0.015069	-0.218001	1.266197	0.062649	0.091424	1.382025	0.044666	0.046302	1.325453	0.088296	0.049405	1.374305	0.057160	0.107292	1.336313	0.069687	0.027556	1.405397	-0.010833	0.073889	1.210355	0.038841	-0.145190	1.373925	-0.009150	0.039158	1.345687	0.077025
5263	52.630000	-0.015954	1.491680	-0.121224	-0.008752	1.242826	-0.185024	-0.218529	1.086465	0.028955	-0.170712	1.069052	-0.015572	-0.206457	0.858054	0.118463	-0.154866	0.867054	0.130108	-0.175700	1.398395	-0.022765	-0.220601	0.915076	0.137140	-0.213999	0.864837	0.155860	-0.187658	0.871270	0.163954	-0.178759	0.926534	0.149919	-0.216774	1.192683	0.071128	-0.244871	1.196792	0.018112	-0.252072	1.259801	0.014692	-0.218334	1.266398	0.062415	0.091433	1.382071	0.044734	0.046306	1.325498	0.088318	0.049440	1.374336	0.057181	0.107289	1.336342	0.069750	0.027631	1.405432	-0.010824	0.073946	1.210391	0.038870	-0.145174	1.374007	-0.009208	0.039159	1.345696	0.077034
5264	52.640000	-0.015764	1.491737	-0.121240	-0.008485	1.242894	-0.185074	-0.218936	1.086650	0.028782	-0.170985	1.069161	-0.015570	-0.207672	0.858282	0.118371	-0.156082	0.867162	0.130109	-0.175603	1.398428	-0.022956	-0.221837	0.915284	0.137026	-0.215316	0.865072	0.155719	-0.189195	0.871492	0.163912	-0.179994	0.926677	0.149945	-0.217276	1.192927	0.070876	-0.245114	1.196987	0.017741	-0.252276	1.260019	0.014244	-0.218695	1.266629	0.062062	0.091471	1.382105	0.044794	0.046275	1.325538	0.088336	0.049453	1.374373	0.057219	0.107288	1.336378	0.069842	0.027715	1.405473	-0.010811	0.073993	1.210427	0.038897	-0.145154	1.374093	-0.009301	0.039165	1.345720	0.077055
5265	52.650000	-0.015549	1.491804	-0.121261	-0.008212	1.242971	-0.185128	-0.219374	1.086850	0.028597	-0.171272	1.069274	-0.015557	-0.208765	0.858550	0.118364	-0.157182	0.867352	0.130196	-0.175494	1.398484	-0.023160	-0.222913	0.915560	0.136935	-0.216556	0.865349	0.155716	-0.190395	0.871721	0.163948	-0.181108	0.926854	0.149995	-0.217747	1.193168	0.070601	-0.245405	1.197211	0.017274	-0.252494	1.260253	0.013755	-0.219040	1.266758	0.061934	0.091500	1.382131	0.044861	0.046259	1.325583	0.088364	0.049480	1.374409	0.057229	0.107298	1.336406	0.069899	0.027811	1.405520	-0.010800	0.074029	1.210464	0.038924	-0.145127	1.374182	-0.009428	0.039182	1.345734	0.077050
5266	52.660000	-0.015316	1.491873	-0.121286	-0.007945	1.243048	-0.185178	-0.219828	1.087063	0.028410	-0.171564	1.069387	-0.015528	-0.209736	0.858850	0.118434	-0.158168	0.867610	0.130360	-0.175379	1.398562	-0.023368	-0.223952	0.915896	0.136909	-0.217669	0.865680	0.155724	-0.191592	0.872057	0.164131	-0.182105	0.927114	0.150090	-0.218271	1.193405	0.070302	-0.245653	1.197428	0.016868	-0.252687	1.260483	0.013242	-0.219515	1.267097	0.061260	0.091541	1.382166	0.044919	0.046263	1.325633	0.088357	0.049507	1.374445	0.057259	0.107298	1.336425	0.069967	0.027914	1.405569	-0.010790	0.074053	1.210500	0.038958	-0.145096	1.374271	-0.009594	0.039203	1.345775	0.077095
